<svg width="110" height="110" viewBox="0 0 110 110" fill="none" xmlns="http://www.w3.org/2000/svg"><path d="M17.284 86.086c8.916 10.28 22.19 16.822 37.035 16.876 26.97.096 48.918-21.26 49.023-47.698.105-26.438-21.676-47.949-48.645-48.045-22.31-.08-37.933 14.517-43.847 34.53" stroke="#fff" stroke-width="8" stroke-miterlimit="10"/><path d="M7.335 34.055l3.328 8.512 7.575-5.118" stroke="#fff" stroke-width="8" stroke-miterlimit="10"/><path d="M42.019 48.521v4.043H28.996V49.18c3.857-6.308 6.148-10.21 6.87-11.704.733-1.504 1.099-2.676 1.099-3.515 0-.645-.113-1.123-.337-1.436-.215-.322-.547-.483-.996-.483-.45 0-.786.175-1.01.527-.216.351-.323 1.05-.323 2.095v2.256h-5.303v-.865c0-1.328.069-2.373.205-3.135.137-.771.474-1.528 1.01-2.27a5.071 5.071 0 012.096-1.684c.859-.381 1.89-.572 3.09-.572 2.354 0 4.131.586 5.333 1.758 1.21 1.162 1.816 2.637 1.816 4.424 0 1.357-.342 2.793-1.026 4.306-.673 1.514-2.67 4.727-5.99 9.64h6.489zm13.754-19.673v15.498h1.685v4.043h-1.685v4.175h-5.918V48.39h-7.03v-4.043l5.111-15.498h7.837zm-5.918 15.498V34.254l-2.607 10.092h2.608zm27.441 20.229v5.17l-3.78 18.546h-5.888l4.204-19.453h-5.845v-4.263h11.309z" fill="#fff"/><path d="M33.846 84.846l46.298-46.299" stroke="#fff" stroke-width="6" stroke-miterlimit="10"/></svg>