<svg width="110" height="110" viewBox="0 0 110 110" fill="none" xmlns="http://www.w3.org/2000/svg"><path d="M15.501 77.583h-4.37A2.132 2.132 0 019 75.452V18.13c0-1.175.955-2.13 2.13-2.13h87.794c1.176 0 2.13.955 2.13 2.13v57.322a2.13 2.13 0 01-2.13 2.13H38.13L13.9 94.204l1.6-15.927v-.694zM20 33h69M20 47h69M20 61h41" stroke="#fff" stroke-width="6" stroke-miterlimit="10"/><path d="M65.876 77.8a9.162 9.162 0 019.11-10.154 9.162 9.162 0 019.14 9.824" fill="#C4C4C4"/><path d="M65.876 77.8a9.162 9.162 0 019.11-10.154 9.162 9.162 0 019.14 9.824m-19.156.618h20.031" stroke="#fff" stroke-width="4" stroke-miterlimit="10"/><path d="M75.092 68.712a5.86 5.86 0 100-11.72 5.86 5.86 0 000 11.72z" fill="#C4C4C4" stroke="#fff" stroke-width="4" stroke-miterlimit="10"/><path d="M73.76 84.895a9.162 9.162 0 019.11-10.154 9.162 9.162 0 019.14 9.824" fill="#C4C4C4"/><path d="M73.76 84.895a9.162 9.162 0 019.11-10.154 9.162 9.162 0 019.14 9.824m-19.155.618h20.03" stroke="#fff" stroke-width="4" stroke-miterlimit="10"/><path d="M82.977 75.807a5.86 5.86 0 100-11.72 5.86 5.86 0 000 11.72z" fill="#C4C4C4" stroke="#fff" stroke-width="4" stroke-miterlimit="10"/></svg>