<svg width="202" height="25" viewBox="0 0 202 25" fill="none" xmlns="http://www.w3.org/2000/svg"><path d="M17.694 6.013c-.755-.148-1.603-.247-3.007-.247-4.51 0-6.314 3.477-6.314 6.91 0 3.378 1.604 6.36 6.364 6.36 4.012 0 5.516-.593 8.174-1.54 1.952.749 2.359 2.586 2.359 4.374-3.257 2.035-7.618 3.08-11.68 3.08C7.02 24.95 0 22.316 0 12.678 0 4.77 6.414 0 14.986 0c3.058 0 6.314.798 9.272 1.986v7.8c0 .693-.955 1.195-2.509 1.195-1.354 0-3.256-.396-3.456-1.54l-.599-3.428zm27.266 6.515c0-3.476-1.803-6.713-5.167-6.713-3.356 0-5.16 3.28-5.16 6.713 0 3.477 1.804 6.664 5.16 6.664 3.364-.007 5.167-3.237 5.167-6.664zM39.8 0c7.618 0 13.533 4.275 13.533 12.528 0 8.204-5.915 12.48-13.533 12.48-7.618 0-13.532-4.226-13.532-12.48C26.268 4.275 32.182 0 39.8 0zm18.393 6.458l-3.706-.593c-.955-.148-1.603-1.442-1.603-2.883 0-1.343.399-2.537 1.254-2.537h8.922c2.858 0 3.406 1.343 3.406 4.127V14.81c0 1.985.649 3.879 3.507 3.879 1.902 0 4.81-.799 4.81-4.82V6.31l-3.107-.544c-.955-.148-1.404-1.54-1.404-2.834 0-1.293.349-2.487 1.154-2.487h14.488c.855 0 1.204 1.145 1.204 2.389 0 1.342-.449 2.734-1.404 2.932l-2.708.544v12.225l3.713.593c.955.148 1.604 1.442 1.604 2.883 0 1.343-.4 2.537-1.255 2.537h-8.423c-2.359 0-3.656-.75-3.656-3.032-1.902 2.29-5.06 3.477-7.867 3.477-4.212 0-8.922-1.145-8.922-9.094v-9.44h-.007zM94.088 18.64V6.458l-3.763-.593c-.955-.148-1.603-1.442-1.603-2.883 0-1.343.399-2.537 1.254-2.537h8.423c2.359 0 3.656.898 3.656 3.23C104.107 1.384 106.616 0 110.022 0c1.753 0 2.152.05 3.656.396.349.749.499 1.59.499 2.487 0 1.738-.649 3.674-1.654 4.522l-4.261-.947c-3.357 0-5.915.396-5.915 4.82v7.405l3.107.544c.955.148 1.404 1.54 1.404 2.834 0 1.293-.349 2.487-1.155 2.487H91.216c-.855 0-1.204-1.145-1.204-2.389 0-1.342.448-2.734 1.403-2.932l2.673-.587zm20.651-1.844c0-.7.855-1.194 2.409-1.194 1.354 0 3.107.445 3.406 1.54l.649 2.389c1.354.445 2.907.749 4.76.749 2.957 0 3.713-.594 3.713-1.293 0-.997-.756-1.64-6.015-3.625-6.214-2.29-8.473-4.523-8.473-8.105 0-4.869 5.06-7.257 12.079-7.257 3.863 0 7.269.594 10.326 1.59v6.36c0 .692-.955 1.194-2.508 1.194-1.354 0-3.008-.446-3.307-1.54l-.648-2.439a12.034 12.034 0 00-3.357-.494c-2.957 0-3.763 1.095-3.763 1.837 0 1.293.955 1.64 5.01 3.031 7.419 2.587 9.521 4.918 9.521 8.353 0 5.27-5.416 7.059-12.229 7.059-5.216 0-9.022-.799-11.48-1.937v-6.21h-.093v-.008zm57.189 1.844V6.458l-3.763-.593c-.955-.148-1.603-1.442-1.603-2.883 0-1.343.399-2.537 1.254-2.537h8.423c2.359 0 3.656.7 3.656 2.982C181.797 1.088 184.954 0 187.762 0c4.212 0 8.922 1.145 8.922 9.094v9.44l3.713.594c.955.148 1.603 1.442 1.603 2.883 0 1.343-.399 2.537-1.254 2.537h-8.922c-2.858 0-3.406-1.343-3.406-4.127V10.14c0-1.986-.649-3.88-3.506-3.88-1.903 0-4.811.75-4.811 4.77v7.653l3.107.544c.955.148 1.404 1.54 1.404 2.834 0 1.293-.349 2.487-1.154 2.487H168.97c-.855 0-1.204-1.145-1.204-2.389 0-1.342.449-2.734 1.404-2.932l2.758-.587z" fill="#30282C"/><path d="M149.123 19.432V5.519l12.179 6.96-12.179 6.953zM153.584 0c-7.617 0-13.532 4.275-13.532 12.528 0 8.204 5.915 12.48 13.532 12.48 7.618 0 13.533-4.226 13.533-12.48C167.117 4.275 161.202 0 153.584 0z" fill="#7BB51D"/></svg>