<svg width="110" height="110" viewBox="0 0 110 110" fill="none" xmlns="http://www.w3.org/2000/svg">
<path d="M15.5013 77.5828H11.1309C9.95464 77.5828 9 76.6281 9 75.4519V18.1309C9 16.9546 9.95464 16 11.1309 16H98.9236C100.1 16 101.054 16.9546 101.054 18.1309V75.4519C101.054 76.6281 100.1 77.5828 98.9236 77.5828H41.5408H38.1314L13.901 94.2037L15.5013 78.2768V77.5828Z" stroke="white" stroke-width="6" stroke-miterlimit="10"/>
<path d="M20 33L89 33" stroke="white" stroke-width="6" stroke-miterlimit="10"/>
<path d="M20 47L89 47" stroke="white" stroke-width="6" stroke-miterlimit="10"/>
<path d="M20 61L61 61" stroke="white" stroke-width="6" stroke-miterlimit="10"/>
<path d="M65.8765 77.8005C65.8424 77.4745 65.8232 77.1442 65.8232 76.8096C65.8232 71.7488 69.9252 67.6468 74.9861 67.6468C80.0469 67.6468 84.1489 71.7488 84.1489 76.8096C84.1489 77.0312 84.1404 77.2528 84.1255 77.4702" fill="#C4C4C4"/>
<path d="M65.8765 77.8005C65.8424 77.4745 65.8232 77.1442 65.8232 76.8096C65.8232 71.7488 69.9252 67.6468 74.9861 67.6468C80.0469 67.6468 84.1489 71.7488 84.1489 76.8096C84.1489 77.0312 84.1404 77.2528 84.1255 77.4702" stroke="white" stroke-width="4" stroke-miterlimit="10"/>
<path d="M64.9707 78.0882H85.0011" stroke="white" stroke-width="4" stroke-miterlimit="10"/>
<path d="M75.0924 68.7122C78.3287 68.7122 80.9523 66.0887 80.9523 62.8523C80.9523 59.6159 78.3287 56.9923 75.0924 56.9923C71.856 56.9923 69.2324 59.6159 69.2324 62.8523C69.2324 66.0887 71.856 68.7122 75.0924 68.7122Z" fill="#C4C4C4" stroke="white" stroke-width="4" stroke-miterlimit="10"/>
<path d="M73.7603 84.8953C73.7262 84.5693 73.707 84.239 73.707 83.9045C73.707 78.8436 77.809 74.7416 82.8699 74.7416C87.9307 74.7416 92.0327 78.8436 92.0327 83.9045C92.0327 84.1261 92.0242 84.3477 92.0093 84.565" fill="#C4C4C4"/>
<path d="M73.7603 84.8953C73.7262 84.5693 73.707 84.239 73.707 83.9045C73.707 78.8436 77.809 74.7416 82.8699 74.7416C87.9307 74.7416 92.0327 78.8436 92.0327 83.9045C92.0327 84.1261 92.0242 84.3477 92.0093 84.565" stroke="white" stroke-width="4" stroke-miterlimit="10"/>
<path d="M72.8545 85.183H92.8849" stroke="white" stroke-width="4" stroke-miterlimit="10"/>
<path d="M82.9771 75.8071C86.2135 75.8071 88.8371 73.1835 88.8371 69.9471C88.8371 66.7108 86.2135 64.0872 82.9771 64.0872C79.7408 64.0872 77.1172 66.7108 77.1172 69.9471C77.1172 73.1835 79.7408 75.8071 82.9771 75.8071Z" fill="#C4C4C4" stroke="white" stroke-width="4" stroke-miterlimit="10"/>
</svg>
