<svg width="110" height="110" viewBox="0 0 110 110" fill="none" xmlns="http://www.w3.org/2000/svg">
<path d="M17.2842 86.0857C26.2002 96.366 39.4732 102.908 54.319 102.962C81.2883 103.058 103.237 81.7029 103.342 55.2643C103.447 28.8256 81.6664 7.31542 54.6971 7.21874C32.3877 7.13925 16.7643 21.7357 10.8496 41.7484" stroke="white" stroke-width="8" stroke-miterlimit="10"/>
<path d="M7.33496 34.0549L10.6629 42.567L18.2383 37.4494" stroke="white" stroke-width="8" stroke-miterlimit="10"/>
<path d="M42.0186 48.5211V52.5641H28.9961V49.1803C32.8535 42.8717 35.1436 38.9703 35.8662 37.4762C36.5986 35.9723 36.9648 34.8004 36.9648 33.9606C36.9648 33.316 36.8525 32.8375 36.6279 32.525C36.4131 32.2028 36.0811 32.0416 35.6318 32.0416C35.1826 32.0416 34.8457 32.2174 34.6211 32.569C34.4062 32.9205 34.2988 33.6188 34.2988 34.6637V36.9196H28.9961V36.0553C28.9961 34.7272 29.0645 33.6823 29.2012 32.9205C29.3379 32.149 29.6748 31.3922 30.2119 30.65C30.749 29.9078 31.4473 29.3463 32.3066 28.9655C33.166 28.5846 34.1963 28.3942 35.3975 28.3942C37.751 28.3942 39.5283 28.9801 40.7295 30.152C41.9404 31.3141 42.5459 32.7887 42.5459 34.5758C42.5459 35.9332 42.2041 37.3688 41.5205 38.8824C40.8467 40.3961 38.8496 43.609 35.5293 48.5211H42.0186ZM55.7734 28.8483V44.3463H57.458V48.3893H55.7734V52.5641H49.8555V48.3893H42.8242V44.3463L47.9365 28.8483H55.7734ZM49.8555 44.3463V34.2535L47.248 44.3463H49.8555Z" fill="white"/>
<path d="M77.2959 64.5748V69.7457L73.5166 88.2906H67.6279L71.832 68.8375H65.9873V64.5748H77.2959Z" fill="white"/>
<path d="M33.8457 84.8458L80.1445 38.547" stroke="white" stroke-width="6" stroke-miterlimit="10"/>
</svg>
