<svg width="202" height="25" viewBox="0 0 202 25" fill="none" xmlns="http://www.w3.org/2000/svg">
<path d="M17.6944 6.01328C16.939 5.8649 16.091 5.76597 14.6872 5.76597C10.1763 5.76597 8.37332 9.24251 8.37332 12.6767C8.37332 16.0543 9.97672 19.0362 14.737 19.0362C18.7491 19.0362 20.2527 18.4426 22.9108 17.4958C24.8634 18.2448 25.2696 20.082 25.2696 21.8697C22.0129 23.9047 17.6517 24.9505 13.5897 24.9505C7.01933 24.9505 0 22.3149 0 12.6767C0 4.76964 6.4136 0 14.9865 0C18.0436 0 21.3003 0.798474 24.2577 1.98558V9.7866C24.2577 10.4791 23.3028 10.9808 21.7492 10.9808C20.3953 10.9808 18.4926 10.5851 18.293 9.44036L17.6944 6.01328Z" fill="#30282C"/>
<path d="M44.9597 12.5283C44.9597 9.05172 43.1567 5.81543 39.7932 5.81543C36.4367 5.81543 34.6338 9.09412 34.6338 12.5283C34.6338 16.0048 36.4367 19.1916 39.7932 19.1916C43.1567 19.1846 44.9597 15.9553 44.9597 12.5283ZM39.8003 0C47.4182 0 53.333 4.27501 53.333 12.5283C53.333 20.7321 47.4182 25.0071 39.8003 25.0071C32.1823 25.0071 26.2676 20.7815 26.2676 12.5283C26.2676 4.27501 32.1823 0 39.8003 0Z" fill="#30282C"/>
<path d="M58.1928 6.45846L54.4872 5.8649C53.5323 5.71652 52.8838 4.42341 52.8838 2.98192C52.8838 1.63935 53.2829 0.445175 54.138 0.445175H63.06C65.9177 0.445175 66.4664 1.78774 66.4664 4.5718V14.8106C66.4664 16.7962 67.1149 18.6899 69.9725 18.6899C71.8752 18.6899 74.7827 17.8915 74.7827 13.8708V6.31007L71.6757 5.76598C70.7207 5.61759 70.2718 4.22556 70.2718 2.93246C70.2718 1.63935 70.621 0.445175 71.4262 0.445175H85.9138C86.769 0.445175 87.1182 1.58989 87.1182 2.83353C87.1182 4.1761 86.6692 5.56813 85.7143 5.76598L83.0064 6.31007V18.5345L86.7191 19.128C87.674 19.2764 88.3225 20.5695 88.3225 22.011C88.3225 23.3536 87.9234 24.5478 87.0683 24.5478H78.6451C76.2863 24.5478 74.9893 23.7988 74.9893 21.5164C73.0866 23.8058 69.9297 24.9929 67.122 24.9929C62.9104 24.9929 58.2 23.8482 58.2 15.8988V6.45846H58.1928Z" fill="#30282C"/>
<path d="M94.0877 18.6405V6.45845L90.3251 5.8649C89.3702 5.71651 88.7217 4.4234 88.7217 2.98191C88.7217 1.63934 89.1207 0.445167 89.9759 0.445167H98.3991C100.758 0.445167 102.055 1.34257 102.055 3.67439C104.107 1.38496 106.616 0 110.022 0C111.775 0 112.174 0.049463 113.678 0.395704C114.027 1.14471 114.177 1.98558 114.177 2.88298C114.177 4.62125 113.528 6.55738 112.523 7.40531L108.262 6.45845C104.905 6.45845 102.347 6.85415 102.347 11.2776V18.6829L105.454 19.227C106.409 19.3754 106.858 20.7674 106.858 22.0605C106.858 23.3536 106.509 24.5478 105.703 24.5478H91.2159C90.3607 24.5478 90.0115 23.4031 90.0115 22.1594C90.0115 20.8168 90.4605 19.4248 91.4154 19.227L94.0877 18.6405Z" fill="#30282C"/>
<path d="M114.739 16.7962C114.739 16.0967 115.594 15.602 117.148 15.602C118.502 15.602 120.255 16.0472 120.554 17.1425L121.203 19.5308C122.557 19.976 124.11 20.2798 125.963 20.2798C128.92 20.2798 129.676 19.6863 129.676 18.9867C129.676 17.9904 128.92 17.3474 123.661 15.3618C117.447 13.0724 115.188 10.8395 115.188 7.25693C115.188 2.38836 120.248 0 127.267 0C131.13 0 134.536 0.593556 137.593 1.58988V7.94941C137.593 8.64189 136.638 9.14358 135.085 9.14358C133.731 9.14358 132.077 8.69842 131.778 7.60317L131.13 5.16535C130.324 4.91803 129.077 4.67072 127.773 4.67072C124.816 4.67072 124.01 5.76597 124.01 6.50791C124.01 7.80102 124.965 8.14726 129.02 9.53929C136.439 12.1255 138.541 14.4573 138.541 17.8915C138.541 23.1628 133.125 24.9505 126.312 24.9505C121.096 24.9505 117.29 24.1521 114.832 23.0144V16.8033H114.739V16.7962Z" fill="#30282C"/>
<path d="M171.928 18.6405V6.45845L168.165 5.8649C167.21 5.71651 166.562 4.4234 166.562 2.98191C166.562 1.63934 166.961 0.445167 167.816 0.445167H176.239C178.598 0.445167 179.895 1.14471 179.895 3.42708C181.797 1.08819 184.954 0 187.762 0C191.974 0 196.684 1.14471 196.684 9.09412V18.5345L200.397 19.128C201.352 19.2764 202 20.5695 202 22.011C202 23.3536 201.601 24.5478 200.746 24.5478H191.824C188.966 24.5478 188.418 23.2052 188.418 20.4211V10.1399C188.418 8.15432 187.769 6.2606 184.912 6.2606C183.009 6.2606 180.101 7.00961 180.101 11.0302V18.6829L183.208 19.227C184.163 19.3754 184.612 20.7674 184.612 22.0605C184.612 23.3536 184.263 24.5478 183.458 24.5478H168.97C168.115 24.5478 167.766 23.4031 167.766 22.1594C167.766 20.8168 168.215 19.4248 169.17 19.227L171.928 18.6405Z" fill="#30282C"/>
<path d="M149.123 19.4319V5.51865L161.302 12.4788L149.123 19.4319ZM153.584 0C145.967 0 140.052 4.27501 140.052 12.5283C140.052 20.7321 145.967 25.0071 153.584 25.0071C161.202 25.0071 167.117 20.7815 167.117 12.5283C167.117 4.27501 161.202 0 153.584 0Z" fill="#7BB51D"/>
</svg>
