<svg width="18" height="14" viewBox="0 0 18 14" fill="none" xmlns="http://www.w3.org/2000/svg">
<path fill-rule="evenodd" clip-rule="evenodd" d="M4.5 6.5H1.5C0.95 6.5 0.5 6.05 0.5 5.5V1.5C0.5 0.95 0.95 0.5 1.5 0.5H4.5C5.05 0.5 5.5 0.95 5.5 1.5V5.5C5.5 6.05 5.05 6.5 4.5 6.5ZM4.5 13.5H1.5C0.95 13.5 0.5 13.05 0.5 12.5V8.5C0.5 7.95 0.95 7.5 1.5 7.5H4.5C5.05 7.5 5.5 7.95 5.5 8.5V12.5C5.5 13.05 5.05 13.5 4.5 13.5ZM7.5 13.5H10.5C11.05 13.5 11.5 13.05 11.5 12.5V8.5C11.5 7.95 11.05 7.5 10.5 7.5H7.5C6.95 7.5 6.5 7.95 6.5 8.5V12.5C6.5 13.05 6.95 13.5 7.5 13.5ZM16.5 13.5H13.5C12.95 13.5 12.5 13.05 12.5 12.5V8.5C12.5 7.95 12.95 7.5 13.5 7.5H16.5C17.05 7.5 17.5 7.95 17.5 8.5V12.5C17.5 13.05 17.05 13.5 16.5 13.5ZM7.5 6.5H10.5C11.05 6.5 11.5 6.05 11.5 5.5V1.5C11.5 0.95 11.05 0.5 10.5 0.5H7.5C6.95 0.5 6.5 0.95 6.5 1.5V5.5C6.5 6.05 6.95 6.5 7.5 6.5ZM12.5 5.5V1.5C12.5 0.95 12.95 0.5 13.5 0.5H16.5C17.05 0.5 17.5 0.95 17.5 1.5V5.5C17.5 6.05 17.05 6.5 16.5 6.5H13.5C12.95 6.5 12.5 6.05 12.5 5.5Z" fill="#505050"/>
</svg>
